<svg xmlns="http://www.w3.org/2000/svg" xmlns:xlink="http://www.w3.org/1999/xlink" xml:space="preserve" viewBox="0 0 512 512"><defs><linearGradient id="b"><stop offset="0" stop-opacity=".2"/><stop offset=".5" stop-opacity="0"/></linearGradient><linearGradient id="a"><stop offset="0" stop-opacity=".2"/><stop offset=".5" stop-opacity="0"/></linearGradient><linearGradient xlink:href="#a" id="f" x1="277.4" x2="359.2" y1="172.3" y2="255.5" gradientUnits="userSpaceOnUse"/><linearGradient xlink:href="#b" id="e" x1="277.4" x2="359.2" y1="172.3" y2="255.5" gradientTransform="translate(-123 41)" gradientUnits="userSpaceOnUse"/><linearGradient xlink:href="#b" id="d" x1="277.4" x2="359.2" y1="172.3" y2="255.5" gradientTransform="translate(124 124)" gradientUnits="userSpaceOnUse"/><clipPath id="c" clipPathUnits="userSpaceOnUse"><path stroke-linecap="round" stroke-linejoin="round" stroke-width="16" d="M-5 4h512v512H-5z" paint-order="stroke fill markers"/></clipPath></defs><g clip-path="url(#c)" transform="translate(5 -4)"><path fill="#0c9" d="M114 248C69 298 18 357-53 440c-30-44-60-103-106-192 46-88 76-147 106-191 71 83 122 142 167 191" clip-path="none"/><path fill="#35a9f3" d="M388 248c45-49 96-108 167-191 30 44 60 103 106 191-46 89-76 148-106 192-71-83-122-142-167-192" clip-path="none"/><path fill="#3f56ff" d="M251 385c53-46 96-86 144-137 48 51 102 112 177 198-32 45-64 76-113 106-90-71-155-121-208-167" clip-path="none"/><path fill="#a101ff" d="M54 544c86-69 146-119 197-163 51 44 111 94 197 163-45 29-106 59-197 103-91-44-152-74-197-103" clip-path="none"/><path fill="#f3c" d="M-68 445C7 359 60 299 108 248c47 51 90 91 143 137-53 45-117 95-207 166-48-30-80-60-112-106" clip-path="none"/><path fill="#e3322a" d="M114 248c46-49 86-88 137-132 51 44 91 83 137 132-46 50-86 89-137 133-51-44-91-83-137-133" clip-path="none"/><path fill="#f1801a" d="M251 116c51-45 111-94 197-163 46 30 76 59 107 104-71 83-122 142-167 191-46-49-86-88-137-132" clip-path="none"/><path fill="#fcca29" d="M54-47c45-29 106-59 197-103 91 44 152 74 197 103-86 69-146 118-197 163C200 71 140 22 54-47" clip-path="none"/><path fill="#81ec18" d="M-53 57C-22 12 8-17 54-47c86 69 146 118 197 163-51 44-91 83-137 132C69 199 18 140-53 57" clip-path="none"/><path fill="url(#d)" d="m256 442 207-206 115 122-194 196Z" paint-order="stroke fill markers" transform="translate(-5 4)"/><path fill="url(#e)" d="m133 235 82-82 95 97-95 69z" paint-order="stroke fill markers" transform="translate(-5 4)"/><path fill="url(#f)" d="m256 194 41-41 83 83-42 41z" paint-order="stroke fill markers" transform="translate(-5 4)"/></g><path fill="#fff" d="m256 359 124-123-83-83-41 41-41-41-83 83zm0 83L49 236 215 70l41 42 41-42 166 166Z"/></svg>